<svg width="79" height="79" viewBox="0 0 79 79" fill="none" xmlns="http://www.w3.org/2000/svg">
<path d="M31.3699 53.0683C30.5088 50.9453 28.9363 49.1878 26.9218 48.0968C24.9073 47.0058 22.5762 46.6492 20.3276 47.088C18.0791 47.5268 16.0531 48.7338 14.5966 50.5021C13.1401 52.2705 12.3438 54.4903 12.3441 56.7813C12.3441 57.7955 12.1358 58.7989 11.7321 59.7293C11.3284 60.6596 10.7379 61.4972 9.99728 62.19C9.25662 62.8829 8.38155 63.4162 7.42631 63.757C6.47108 64.0977 5.45603 64.2387 4.44409 64.1711C6.07165 66.9985 8.58709 69.2094 11.5999 70.4608C14.6128 71.7121 17.9544 71.9339 21.1062 71.0915C24.2579 70.2492 27.0434 68.3899 29.0303 65.8023C31.0171 63.2148 32.0941 60.0436 32.0941 56.7813C32.0941 55.4679 31.8373 54.2138 31.3699 53.0683ZM31.3699 53.0683C35.2838 51.7348 39.0269 49.9449 42.5221 47.7358M25.9222 47.6535C27.256 43.7313 29.0481 39.9803 31.2613 36.4783M42.5188 47.7358C48.7609 43.7919 54.1038 38.5792 58.2003 32.4361L70.9588 13.2984C71.4476 12.5695 71.6681 11.6935 71.5828 10.82C71.4975 9.94659 71.1116 9.12985 70.4911 8.50929C69.8705 7.88873 69.0538 7.50285 68.1803 7.41754C67.3069 7.33224 66.4309 7.5528 65.702 8.04156L46.5643 20.8034C40.4204 24.8986 35.2066 30.2403 31.2613 36.4816C36.2709 38.7215 40.2789 42.7295 42.5188 47.7391" stroke="black" stroke-width="4.9375" stroke-linecap="round" stroke-linejoin="round"/>
</svg>
