<svg width="70" height="70" viewBox="0 0 70 70" fill="none" xmlns="http://www.w3.org/2000/svg">
<path d="M52.4475 54.6146C50.4095 51.9163 47.7728 49.7281 44.7451 48.2224C41.7174 46.7166 38.3814 45.9345 35 45.9376C31.6186 45.9345 28.2826 46.7166 25.2549 48.2224C22.2272 49.7281 19.5905 51.9163 17.5525 54.6146M52.4475 54.6146C56.4244 51.0773 59.2291 46.4146 60.4951 41.2449C61.7611 36.0752 61.4258 30.6428 59.5334 25.6681C57.6411 20.6934 54.2813 16.4115 49.8995 13.3902C45.5177 10.3689 40.321 8.75092 34.9985 8.75092C29.6761 8.75092 24.4794 10.3689 20.0976 13.3902C15.7158 16.4115 12.356 20.6934 10.4636 25.6681C8.57132 30.6428 8.23594 36.0752 9.50197 41.2449C10.768 46.4146 13.5756 51.0773 17.5525 54.6146M52.4475 54.6146C47.6467 58.8968 41.4331 61.2592 35 61.2501C28.5659 61.2599 22.354 58.8975 17.5525 54.6146M43.75 28.4376C43.75 30.7582 42.8281 32.9838 41.1872 34.6247C39.5462 36.2657 37.3206 37.1876 35 37.1876C32.6794 37.1876 30.4538 36.2657 28.8128 34.6247C27.1719 32.9838 26.25 30.7582 26.25 28.4376C26.25 26.1169 27.1719 23.8913 28.8128 22.2504C30.4538 20.6094 32.6794 19.6876 35 19.6876C37.3206 19.6876 39.5462 20.6094 41.1872 22.2504C42.8281 23.8913 43.75 26.1169 43.75 28.4376Z" stroke="black" stroke-width="4.375" stroke-linecap="round" stroke-linejoin="round"/>
</svg>
