<svg width="70" height="70" viewBox="0 0 70 70" fill="none" xmlns="http://www.w3.org/2000/svg">
<path d="M46.7335 27.265H61.2935L52.0156 17.9813C49.0286 14.9942 45.3079 12.8462 41.2275 11.753C37.1471 10.6599 32.8508 10.6602 28.7706 11.754C24.6903 12.8477 20.9699 14.9963 17.9834 17.9838C14.9968 20.9713 12.8494 24.6923 11.7569 28.7729M23.266 42.735H8.70604V57.295M8.70604 42.735L17.981 52.0188C20.968 55.0058 24.6888 57.1539 28.7692 58.247C32.8496 59.3401 37.1458 59.3398 41.2261 58.2461C45.3063 57.1523 49.0267 55.0037 52.0133 52.0162C54.9999 49.0287 57.1473 45.3077 58.2398 41.2271M61.2935 12.705V27.2592" stroke="black" stroke-width="3.875" stroke-linecap="round" stroke-linejoin="round"/>
</svg>
